<svg viewBox="0 0 772 769" xmlns="http://www.w3.org/2000/svg" fill-rule="evenodd" clip-rule="evenodd" stroke-linejoin="round" stroke-miterlimit="2"><path d="M33.882 154.46L-.001 163.54l7.933 29.606c1.16-18.108 10.074-31.646 25.95-38.685zm737.467 446.456L610.334 0 371.14 64.092c75.554-9.061 125.55 33.39 141.435 92.675 18.537 69.181-12.841 134.538-103.27 160.28l-68.738 18.418 24.713 92.227-95.934 25.706-90.508-337.779-56.168 15.05c25.468.086 45.657 18.42 52.858 45.295 1.849 6.899 2.535 14.327 1.857 22.336 5.64 2.398 11.795 5.092 17.179 7.342l-12.426 33.087-19.388-9.143c-6.504 9.779-15.89 15.335-25.182 17.173-13.243 3.331-27.608.013-39.32-9.662-6.095 21.831-19.91 27.055-25.797 28.632-23.162 6.206-39.934-4.186-50.677-20.926l74.469 277.921 157.42-42.18 9.177 34.246-10.71 4.607c12.524 6.212 19.556 18.68 22.101 30.611 6.269 30.69-8.065 52.566-40.92 61.37-31.437 8.423-59.1-5.668-67.14-35.677-3.589-13.392-2.092-24.014 3.275-31.54l-62.94 16.864L162.043 768.3l54.228-14.53-8.994-33.566 10.655-4.811c-12.522-6.211-19.554-18.676-22.047-30.41-6.527-30.842 10.85-53.522 40.666-61.511 30.625-8.207 59.248 5.41 67.343 35.624 3.968 14.807 1.566 26.104-5.27 33.816l11.684-.967 9.157 34.174 21.417-5.738-65.804-245.588 95.463-25.58L436.347 694.8l21.832-5.85-90.508-337.778 165.613-44.376c87.042-23.323 147.179 20.533 163.458 81.289 11.242 41.954 6.262 81.682-44.413 122.043l119.02 90.788zM92.75 138.686l-45.829 12.28 9.536 35.59c-15.993 3.634-17.186 14.61-14.468 24.755 2.664 9.942 9.982 17.768 19.927 15.103 7.51-2.012 12.551-8.364 8.8-22.365-7.72-28.808.62-53.056 22.034-65.363zM218.852 350.63l-57.184 15.322c-36.89 9.885-43.443 31.624-37.633 53.309 2.734 11.013 9.807 22.821 22.532 28.978l-10.912 4.662 9.122 34.045 103.192-27.65-10.154-37.896-54.954 14.725c-13.586 3.64-21.602-3.564-24.05-12.696-1.957-7.306.601-15.605 13.376-19.028l56.982-15.268-10.317-38.503zm-26.025-97.132L89.433 281.2l10.262 38.3 53.886-14.439c13.625-3.65 21.437 2.733 24.1 12.669 1.738 6.489 1.66 11.074-1.482 18.871l31.91 7.968c5.501-8.647 6.54-19.358 3.66-30.105-2.662-9.936-9.011-18.232-20.46-21.249l10.75-5.27-9.232-34.45zm2.005 305.173c-3.588-13.391 5.817-23.741 18.396-27.112 10.754-2.881 23.574 1.948 27.053 14.934 3.153 11.768-2.773 22.925-17.179 26.785-14.406 3.86-25.116-2.839-28.27-14.607zm80.4 117.453c3.642 13.591-3.22 23.691-17.22 27.442-12.173 3.262-24.75-2.282-28.228-15.264-3.1-11.572 2.57-22.874 16.975-26.734 14.406-3.86 25.372 2.985 28.473 14.556zM144.122 184.38c2.99 11.16-4.52 22.09-16.085 25.189-14 3.751-22.737-3.694-25.51-14.043-3.099-11.566 2.328-22.155 14.908-25.525 14-3.752 23.588 2.813 26.687 14.38zm152.19-14.077l68.737-18.418c26.836-7.19 45.788 8.927 51.97 32 6.057 22.603-2.08 44.97-29.385 52.287l-68.737 18.418-22.585-84.287zm257.8 492.943l111.156-29.784-106.776-87.578-33.428 8.956 29.048 108.406zm-.292-279.808c25.423-6.813 43.222 10.648 48.906 31.86 5.683 21.213-.69 42.625-26.113 49.437l-70.622 18.923-21.851-81.55 69.68-18.67z" fill="#d10a10"/></svg>