<svg xmlns="http://www.w3.org/2000/svg" height="185" width="685" fill="none"><path d="M268.082 1.583l4.893-1.04 1.04 4.893-4.893 1.04zm35.84 30.35l-7.827 1.664 1.664 7.828 7.828-1.664zm38.193 19.127l14.679-3.12 3.12 14.678-14.68 3.12zm18.008 38.175l34.25-7.28 7.28 34.25-34.25 7.28zm-52.788 12.728l-34.25 7.281 7.28 34.25 20.59-4.377 2.42 11.38 34.25-7.28-7.28-34.25-20.591 4.376zm-74.033 14.007l-34.25 7.28 5.848 27.511-8.42 1.79-3.523-16.573-48.93 10.4 8.21 38.622H384.78l-2.404-11.312 16.276-3.459-7.28-34.251-34.251 7.28 3.943 18.551-22.778 4.841-2.266-10.663-48.93 10.4 2.267 10.663-6.324 1.345-6.04-28.411-56.067 11.918-1.526-7.18 21.182-4.502zM662.564 185H407.349l-8.21-38.622 48.93-10.4 9.277 43.645 14.065-2.99-3.241-15.248 16.453-3.497-2.447-11.51 48.929-10.4 5.323 25.044 16.04-3.409-3.262-15.355 28.928-6.149-1.917-9.016 14.679-3.12 3.12 14.679-9.357 1.989 3.824 17.987 40.665-8.644 5.163 24.291 24.85-5.282zM685 185h-15.342l-.4-1.882 14.679-3.12zm-539.325 0H0l34.382-7.308-2.403-11.305 41.28-8.774-3.264-15.355 34.25-7.28 6.223 29.273 29.466-6.263zm107.073-82.036l-14.68 3.12 3.12 14.679 14.68-3.12zM171.865 92.96l-7.828 1.664 1.664 7.828 7.828-1.664zm360.333 8.667l7.829-1.664 1.664 7.828-7.83 1.664zm-89.214-43.683l-7.828 1.664 1.664 7.829 7.828-1.664zm25.186 58.144l14.679-3.12 3.12 14.679-14.68 3.12zm-398.502 2.883l-14.68 3.12 3.12 14.679 14.68-3.12z" clip-rule="evenodd" fill="#d10a10" fill-rule="evenodd"/></svg>