<svg xmlns="http://www.w3.org/2000/svg" width="117" height="41" fill="none"><path fill="#193B69" d="M41.842 23.719c-.169 1.07-.25 2.164-.52 3.209-1.787 6.931-6.128 11.46-12.984 13.509-2.563.766-4.968-.608-5.676-3.071-.725-2.519.627-4.892 3.272-5.644 2.69-.767 5.39-1.497 8.094-2.211 3.211-.848 5.706-2.617 7.316-5.561.062-.112.159-.206.24-.307l.258.076ZM12.584 2.855C14.713 1.6 16.76 1.013 18.89.787c5.733-.61 10.792.917 15.012 4.946 2.026 1.934 2.203 4.713.415 6.615-1.776 1.888-4.634 1.895-6.62-.026-1.677-1.62-3.312-3.284-4.969-4.925-3.588-3.555-4.87-4.144-10.144-4.542ZM9.077 38.191c-2.4-1.544-4.294-3.473-5.72-5.844C.776 28.05.088 23.436 1.179 18.556c.425-1.905 1.518-3.286 3.462-3.734 1.724-.397 3.294.04 4.49 1.424.973 1.128 1.366 2.44.987 3.91-.716 2.78-1.45 5.557-2.196 8.33-.85 3.16-.62 6.184 1.054 9.045.072.122.122.257.176.389.01.024-.015.06-.074.271Z"/><path fill="#193B69" d="M34.455 28.175c-.742-2.86-1.581-5.64-2.161-8.474-.484-2.361 1.434-4.687 3.83-4.973 2.66-.318 4.86 1.372 5.187 3.985.513 4.1-2.614 8.512-6.856 9.462ZM8.882 29.689c.57.138 1.156.267 1.734.423 2.075.56 4.158 1.096 6.22 1.703 2.484.732 3.778 3.357 2.932 5.84-.804 2.362-3.486 3.606-5.852 2.712-4.018-1.516-6.497-6.698-5.034-10.678ZM20.567 6.986c-.423.28-.93.518-1.31.886-1.574 1.524-3.069 3.132-4.67 4.627-1.974 1.845-4.958 1.658-6.62-.332-1.673-2.003-1.314-4.902.814-6.58 3.232-2.545 8.77-2.032 11.786 1.4Z"/><path fill="#0A81BD" d="M31.864 26.076a2.755 2.755 0 0 1-2.718 2.752c-1.47.013-2.746-1.25-2.757-2.726-.011-1.486 1.23-2.726 2.736-2.735a2.691 2.691 0 0 1 2.74 2.709ZM13.369 23.348c1.506.026 2.724 1.267 2.707 2.761-.015 1.472-1.312 2.73-2.782 2.697-1.512-.033-2.69-1.254-2.687-2.783.004-1.513 1.23-2.7 2.762-2.675ZM21.29 15.136c-1.527.02-2.72-1.152-2.739-2.69-.018-1.514 1.183-2.771 2.664-2.79 1.477-.018 2.723 1.205 2.76 2.713.038 1.49-1.183 2.748-2.685 2.767Z"/><path fill="#193B69" d="M49.084 19.074h-.667v1.636H47.07v-4.847h2.015c1.203 0 1.815.68 1.815 1.616 0 .846-.585 1.595-1.815 1.595Zm-.13-1.072c.405 0 .57-.206.57-.523 0-.323-.165-.53-.57-.53h-.537v1.053h.536ZM53.566 15.863c1.203 0 1.809.688 1.809 1.554 0 .633-.344 1.183-1.066 1.403l1.093 1.89h-1.505l-.963-1.787h-.144v1.787h-1.348v-4.847h2.124Zm-.11 1.128h-.667V18h.667c.365 0 .55-.179.55-.509 0-.302-.185-.502-.55-.502ZM59.472 16.887l-2.015 2.73h2.015v1.093h-3.528v-1.024l1.994-2.737h-1.994v-1.086h3.528v1.024ZM63.3 16.943h-1.753v.79h1.547v1.025h-1.547v.873h1.754v1.08h-3.1v-4.847h3.1v1.079ZM68.416 18.284c0 1.402-.983 2.426-2.53 2.426h-1.918v-4.847h1.918c1.547 0 2.53.997 2.53 2.42Zm-2.633 1.237c.777 0 1.265-.44 1.265-1.238 0-.804-.488-1.25-1.265-1.25h-.468v2.488h.468ZM70.85 20.759c-1.08 0-1.918-.516-1.973-1.554h1.437c.028.364.24.488.488.488.24 0 .427-.124.427-.351-.007-.777-2.359-.413-2.338-2.097 0-.949.791-1.458 1.815-1.458 1.114 0 1.843.544 1.89 1.506h-1.464c-.014-.303-.2-.44-.447-.44-.2-.007-.357.11-.357.344 0 .722 2.33.488 2.33 2.041 0 .854-.66 1.52-1.808 1.52ZM73.283 15.863h1.348v4.847h-1.348v-4.847ZM78.502 16.943h-1.754v.79h1.547v1.025h-1.547v.873h1.754v1.08l-.303.151c-.357.18-.495.303-.495.447 0 .11.103.186.268.186.158 0 .344-.035.557-.103v.722c-.213.069-.46.11-.722.11-.64 0-1.066-.288-1.066-.804 0-.254.09-.481.365-.708H75.4v-4.848h3.101v1.079ZM81.567 20.71h-2.399v-4.847h2.324c.983 0 1.588.454 1.588 1.259 0 .584-.344.969-.818 1.1.578.13.928.618.928 1.168 0 .819-.584 1.32-1.623 1.32Zm-.37-3.774h-.681v.852h.68c.33 0 .509-.137.509-.42 0-.288-.179-.432-.509-.432Zm.096 1.808h-.777v.88h.783c.337 0 .51-.138.51-.426 0-.296-.187-.454-.516-.454ZM83.781 15.863h1.348v4.847h-1.348v-4.847ZM88.222 20.759c-1.375 0-2.489-1.032-2.489-2.49 0-1.457 1.114-2.481 2.49-2.481 1.38 0 2.481 1.024 2.481 2.482 0 1.457-1.107 2.489-2.482 2.489Zm0-1.252c.694 0 1.114-.488 1.114-1.237 0-.764-.42-1.245-1.114-1.245-.701 0-1.113.482-1.113 1.245 0 .749.412 1.237 1.113 1.237ZM93.434 15.863c1.203 0 1.808.688 1.808 1.554 0 .633-.344 1.183-1.066 1.403l1.093 1.89h-1.505l-.962-1.787h-.145v1.787H91.31v-4.847h2.124Zm-.11 1.128h-.667V18h.667c.365 0 .55-.179.55-.509 0-.302-.186-.502-.55-.502ZM97.682 20.759c-1.08 0-1.918-.516-1.973-1.554h1.437c.028.364.24.488.488.488.24 0 .427-.124.427-.351-.007-.777-2.359-.413-2.338-2.097 0-.949.791-1.458 1.815-1.458 1.114 0 1.843.544 1.89 1.506h-1.464c-.013-.303-.2-.44-.447-.44-.2-.007-.357.11-.357.344 0 .722 2.33.488 2.33 2.041 0 .854-.66 1.52-1.808 1.52ZM99.849 15.863h3.918v1.073h-1.292v3.774h-1.348v-3.774h-1.278v-1.073ZM104.069 15.863h1.458l.563 3.314.764-3.314h1.478l.742 3.287.564-3.287h1.457l-1.189 4.847h-1.657l-.667-2.97-.68 2.97h-1.657l-1.176-4.847ZM113.991 20.759c-1.375 0-2.489-1.032-2.489-2.49 0-1.457 1.114-2.481 2.489-2.481 1.381 0 2.482 1.024 2.482 2.482-.001 1.457-1.107 2.489-2.482 2.489Zm0-1.252c.694 0 1.113-.488 1.113-1.237 0-.764-.419-1.245-1.113-1.245-.702 0-1.114.482-1.114 1.245 0 .749.412 1.237 1.114 1.237ZM50.53 31.527c-1.875 0-3.333-.895-3.428-2.7h2.496c.048.634.418.848.848.848.418 0 .74-.215.74-.61-.011-1.349-4.097-.716-4.061-3.643 0-1.648 1.374-2.532 3.154-2.532 1.935 0 3.201.944 3.285 2.616H51.02c-.024-.526-.347-.765-.777-.765-.346-.011-.62.192-.62.598 0 1.254 4.05.848 4.05 3.548 0 1.482-1.148 2.64-3.143 2.64ZM58.26 28.6H57.1v2.844H54.76v-8.422h3.5c2.09 0 3.153 1.182 3.153 2.807 0 1.47-1.015 2.772-3.153 2.772Zm-.227-1.863c.704 0 .991-.358.991-.908 0-.562-.287-.92-.991-.92H57.1v1.828h.932ZM66.396 31.527c-2.39 0-4.325-1.792-4.325-4.324 0-2.533 1.936-4.313 4.325-4.313 2.401 0 4.313 1.78 4.313 4.313 0 2.532-1.924 4.324-4.313 4.324Zm0-2.174c1.207 0 1.935-.848 1.935-2.15 0-1.327-.728-2.162-1.935-2.162-1.219 0-1.936.836-1.936 2.162 0 1.302.717 2.15 1.936 2.15ZM74.28 23.022v2.568l.944-.275v2.031l-.944.275v2.042h2.604v1.78h-4.958V28.29l-.717.203v-2.03l.717-.204v-3.237h2.354ZM83.156 24.897h-3.047v1.374h2.688v1.78h-2.688v1.518h3.047v1.875h-5.388v-8.422h5.388v1.875ZM88.222 22.938c2.114 0 3.62 1.219 4.038 3.13h-2.52c-.3-.633-.86-.98-1.554-.98-1.075 0-1.78.837-1.78 2.126 0 1.303.704 2.139 1.78 2.139.693 0 1.254-.347 1.553-.98h2.52c-.417 1.912-1.922 3.13-4.037 3.13-2.533 0-4.194-1.768-4.194-4.289 0-2.508 1.66-4.276 4.194-4.276ZM99.426 24.801l-3.5 4.743h3.5v1.9h-6.128v-1.78l3.464-4.755h-3.464v-1.887h6.128v1.78ZM108.494 23.022v8.422h-2.342l-3.117-4.707v4.707h-2.342v-8.422h2.342l3.117 4.767v-4.767h2.342ZM115.22 24.897h-3.047v1.374h2.688v1.78h-2.688v1.518h3.047v1.875h-5.388v-8.422h5.388v1.875Z"/></svg>